/* XPM */
static char * 2_xpm[] = {
"32 32 102 2",
"  	c None",
". 	c #000000",
"+ 	c #2D2D2D",
"@ 	c #3D3D3D",
"# 	c #383838",
"$ 	c #0B0B0B",
"% 	c #CFCFCF",
"& 	c #FFFFFF",
"* 	c #FBFBFB",
"= 	c #030303",
"- 	c #7E7E7E",
"; 	c #B4B4B4",
"> 	c #B6B6B6",
", 	c #FAFAFA",
"' 	c #7D7D7D",
") 	c #050505",
"! 	c #CBCBCB",
"~ 	c #CACACA",
"{ 	c #040404",
"] 	c #BDBDBD",
"^ 	c #FDFDFD",
"/ 	c #C4C4C4",
"( 	c #090909",
"_ 	c #BCBCBC",
": 	c #B1B1B1",
"< 	c #303030",
"[ 	c #373737",
"} 	c #2E2E2E",
"| 	c #5E5E5E",
"1 	c #F4F4F4",
"2 	c #F6F6F6",
"3 	c #C7C7C7",
"4 	c #353535",
"5 	c #191919",
"6 	c #737373",
"7 	c #EAEAEA",
"8 	c #424242",
"9 	c #1C1C1C",
"0 	c #EEEEEE",
"a 	c #4F4F4F",
"b 	c #484848",
"c 	c #FCFCFC",
"d 	c #F8F8F8",
"e 	c #E0E0E0",
"f 	c #202020",
"g 	c #010101",
"h 	c #282828",
"i 	c #EFEFEF",
"j 	c #494949",
"k 	c #0D0D0D",
"l 	c #2B2B2B",
"m 	c #262626",
"n 	c #313131",
"o 	c #969696",
"p 	c #F7F7F7",
"q 	c #4E4E4E",
"r 	c #8A8A8A",
"s 	c #E7E7E7",
"t 	c #404040",
"u 	c #838383",
"v 	c #212121",
"w 	c #727272",
"x 	c #D2D2D2",
"y 	c #F0F0F0",
"z 	c #989898",
"A 	c #131313",
"B 	c #E2E2E2",
"C 	c #717171",
"D 	c #707070",
"E 	c #757575",
"F 	c #D6D6D6",
"G 	c #020202",
"H 	c #D3D3D3",
"I 	c #0F0F0F",
"J 	c #888888",
"K 	c #A5A5A5",
"L 	c #343434",
"M 	c #121212",
"N 	c #656565",
"O 	c #5D5D5D",
"P 	c #787878",
"Q 	c #575757",
"R 	c #DEDEDE",
"S 	c #BFBFBF",
"T 	c #C3C3C3",
"U 	c #C2C2C2",
"V 	c #C0C0C0",
"W 	c #363636",
"X 	c #3A3A3A",
"Y 	c #A7A7A7",
"Z 	c #FEFEFE",
"` 	c #151515",
" .	c #D0D0D0",
"..	c #4A4A4A",
"+.	c #3F3F3F",
"@.	c #E9E9E9",
"#.	c #9C9C9C",
"$.	c #929292",
"%.	c #898989",
"&.	c #8D8D8D",
"*.	c #8B8B8B",
"=.	c #272727",
"                                                                ",
"                                                                ",
"                                                                ",
"                                                                ",
"                        . . . . . . . .                         ",
"                      . . + @ # # @ + . .                       ",
"                  . . . $ % & * * & % $ . . .                   ",
"                  = - ; > , & & & & , > ; ' =                   ",
"                  ) ! & & & & & & & & & & ~ . .                 ",
"                  { ] & & & ^ , , , * & & / ( . .               ",
"              = . . _ & & & : < [ } | 1 & 2 3 4 .               ",
"              . 5 6 7 & & _ 8 . . . 9 0 & & & a .               ",
"              . b c d , e f . g     h i & & & j .               ",
"              . k } l l m = .   g . 9 i & & & j .               ",
"                . . . . . .     . n o p & & & q .               ",
"                                . r & & & & s t .               ",
"                              . . u & & & ~ v . .               ",
"                              k w x & & & ~ . .                 ",
"                            . 5 y & & & 2 z =                   ",
"                          g . A B & & & C . .                   ",
"                          . @ : 2 & s D A .                     ",
"                          . E & & & F . . G                     ",
"                        . . 6 & & & H I                         ",
"                    = . . J B & & K L {                         ",
"                    . M | 1 & & & N . . .                       ",
"                    . O & & & & & P . = { { { g .               ",
"                  . . Q & & & & & R S T S U V W .               ",
"                . . X Y & & & & Z & & & & & & q .               ",
"              . . `  .& & & & & & & & & & & & ...               ",
"              . +.@.& & & & & & & & & & & & & q .               ",
"              . + #.$.J %.%.%.%.%.%.%.%.%.&.*.=..               ",
"              G . . . . . . . . . . . . . . . . G               "};
