/* XPM */
static char * 3_xpm[] = {
"32 32 95 2",
"  	c None",
". 	c #000000",
"+ 	c #2D2D2D",
"@ 	c #3D3D3D",
"# 	c #383838",
"$ 	c #0B0B0B",
"% 	c #CFCFCF",
"& 	c #FFFFFF",
"* 	c #FBFBFB",
"= 	c #030303",
"- 	c #7E7E7E",
"; 	c #B4B4B4",
"> 	c #B6B6B6",
", 	c #FAFAFA",
"' 	c #7D7D7D",
") 	c #050505",
"! 	c #CBCBCB",
"~ 	c #CACACA",
"{ 	c #040404",
"] 	c #BDBDBD",
"^ 	c #C4C4C4",
"/ 	c #090909",
"( 	c #616161",
"_ 	c #2E2E2E",
": 	c #5E5E5E",
"< 	c #F4F4F4",
"[ 	c #F6F6F6",
"} 	c #C7C7C7",
"| 	c #353535",
"1 	c #1D1D1D",
"2 	c #717171",
"3 	c #969696",
"4 	c #A6A6A6",
"5 	c #8B8B8B",
"6 	c #1C1C1C",
"7 	c #EEEEEE",
"8 	c #4F4F4F",
"9 	c #515151",
"0 	c #F8F8F8",
"a 	c #3A3A3A",
"b 	c #292929",
"c 	c #EFEFEF",
"d 	c #4A4A4A",
"e 	c #0F0F0F",
"f 	c #080808",
"g 	c #1E1E1E",
"h 	c #E7E7E7",
"i 	c #8E8E8E",
"j 	c #222222",
"k 	c #181818",
"l 	c #434343",
"m 	c #F2F2F2",
"n 	c #C0C0C0",
"o 	c #020202",
"p 	c #C5C5C5",
"q 	c #EDEDED",
"r 	c #FDFDFD",
"s 	c #C9C9C9",
"t 	c #404040",
"u 	c #151515",
"v 	c #B7B7B7",
"w 	c #747474",
"x 	c #989898",
"y 	c #B2B2B2",
"z 	c #010101",
"A 	c #212121",
"B 	c #848484",
"C 	c #F7F7F7",
"D 	c #A1A1A1",
"E 	c #282828",
"F 	c #1B1B1B",
"G 	c #494949",
"H 	c #313131",
"I 	c #ACACAC",
"J 	c #AFAFAF",
"K 	c #9F9F9F",
"L 	c #525252",
"M 	c #252525",
"N 	c #4C4C4C",
"O 	c #484848",
"P 	c #FEFEFE",
"Q 	c #F0F0F0",
"R 	c #2F2F2F",
"S 	c #0A0A0A",
"T 	c #414141",
"U 	c #D3D3D3",
"V 	c #CDCDCD",
"W 	c #BCBCBC",
"X 	c #B1B1B1",
"Y 	c #F1F1F1",
"Z 	c #393939",
"` 	c #E9E9E9",
" .	c #6E6E6E",
"..	c #949494",
"+.	c #898989",
"                                                                ",
"                                                                ",
"                                                                ",
"                                                                ",
"                        . . . . . . . .                         ",
"                      . . + @ # # @ + . .                       ",
"                  . . . $ % & * * & % $ . . .                   ",
"                  = - ; > , & & & & , > ; ' =                   ",
"                  ) ! & & & & & & & & & & ~ . .                 ",
"                  { ] & & * , * * , * & & ^ / . .               ",
"              = . . ~ & & ( + # # _ : < & [ } | .               ",
"              . 1 2 3 4 5 $ . . . . 6 7 & & & 8 .               ",
"              . 9 0 a . . .       . b c & & & d .               ",
"              . e + f .           . b c & & & 8 .               ",
"                . . .             . g c & h i j .               ",
"                              = k e l m & n . . o               ",
"                              k p q h r & s o                   ",
"                              g r & & & 4 t o                   ",
"                              u v , & & w o .                   ",
"                              . . x & & & y . . z               ",
"                                . A B [ & C D E .               ",
"                                o . F 7 & & & 8 .               ",
"              . . . . . . . .     . b c & & & G .               ",
"              . H I J y K F .       b c & & & G .               ",
"              . L & & & & M .     . j c & & & N .               ",
"              . O P & & Q R . { { . R Q & & P O .               ",
"              . S T U & * V W ] ] W V * & U T S .               ",
"                . . p & & & & & & & & & & p . .                 ",
"                  { X & Y r & & & & r Y & X {                   ",
"                  z g j Z ` & & & & ` Z j g z                   ",
"                  . . . .  ...+.+... .. . . .                   ",
"                        . . . . . . . .                         "};
