/* XPM */
static char * 4_xpm[] = {
"32 32 83 1",
" 	c None",
".	c #020202",
"+	c #000000",
"@	c #181818",
"#	c #3B3B3B",
"$	c #393939",
"%	c #383838",
"&	c #141414",
"*	c #6C6C6C",
"=	c #FFFFFF",
"-	c #FDFDFD",
";	c #FBFBFB",
">	c #5A5A5A",
",	c #5F5F5F",
"'	c #040404",
")	c #343434",
"!	c #A5A5A5",
"~	c #5B5B5B",
"{	c #0F0F0F",
"]	c #D3D3D3",
"^	c #FEFEFE",
"/	c #D6D6D6",
"(	c #E7E7E7",
"_	c #474747",
":	c #9A9A9A",
"<	c #1B1B1B",
"[	c #6F6F6F",
"}	c #E5E5E5",
"|	c #EAEAEA",
"1	c #707070",
"2	c #D2D2D2",
"3	c #0C0C0C",
"4	c #7B7B7B",
"5	c #5D5D5D",
"6	c #A0A0A0",
"7	c #878787",
"8	c #545454",
"9	c #8A8A8A",
"0	c #050505",
"a	c #777777",
"b	c #787878",
"c	c #A6A6A6",
"d	c #F3F3F3",
"e	c #464646",
"f	c #C7C7C7",
"g	c #202020",
"h	c #858585",
"i	c #303030",
"j	c #C0C0C0",
"k	c #1D1D1D",
"l	c #818181",
"m	c #444444",
"n	c #F4F4F4",
"o	c #A1A1A1",
"p	c #848484",
"q	c #010101",
"r	c #4D4D4D",
"s	c #8D8D8D",
"t	c #999999",
"u	c #959595",
"v	c #979797",
"w	c #C3C3C3",
"x	c #989898",
"y	c #2B2B2B",
"z	c #494949",
"A	c #4F4F4F",
"B	c #313131",
"C	c #ACACAC",
"D	c #AFAFAF",
"E	c #AAAAAA",
"F	c #A9A9A9",
"G	c #ABABAB",
"H	c #DBDBDB",
"I	c #CFCFCF",
"J	c #AEAEAE",
"K	c #888888",
"L	c #808080",
"M	c #595959",
"N	c #828282",
"O	c #5C5C5C",
"P	c #8B8B8B",
"Q	c #616161",
"R	c #8F8F8F",
"                                ",
"                                ",
"                                ",
"                                ",
"             .+++++++           ",
"             +@#$%$#&+          ",
"             +*=-;==>+          ",
"            ++*=====,+          ",
"            ')!=====~+          ",
"            {]=^;-==~+          ",
"          .++/=(_:==~+          ",
"          +<[}=|+1==~+          ",
"          +,===234==~+          ",
"          +5==6@+7==~+          ",
"          +8==9++9==~+          ",
"         +0a=;b++9==~+          ",
"         'c=de+++9==~+          ",
"        ++f=^g+ +h==~+          ",
"       +0i2=jk+ +l==>+          ",
"       +mn=o+++++p==~+++q       ",
"       +r==]st:uv]==wtxy+       ",
"       +z=========-^===A+       ",
"       +z==============z+       ",
"       +A=========-^===A+       ",
"       +BCDEEEFEGH==IJCB+       ",
"       ++++++++++K==,++++       ",
"                +L==M+          ",
"                +l==~+          ",
"                +N==O+          ",
"                +P==Q+          ",
"                +euRB+          ",
"                q++++q          "};
