/* XPM */
static char * 6_xpm[] = {
"32 32 80 1",
" 	c None",
".	c #000000",
"+	c #313131",
"@	c #3C3C3C",
"#	c #383838",
"$	c #414141",
"%	c #2F2F2F",
"&	c #010101",
"*	c #181818",
"=	c #DEDEDE",
"-	c #FFFFFF",
";	c #FAFAFA",
">	c #BDBDBD",
",	c #040404",
"'	c #464646",
")	c #C4C4C4",
"!	c #ACACAC",
"~	c #333333",
"{	c #747474",
"]	c #FEFEFE",
"^	c #303030",
"/	c #787878",
"(	c #CFCFCF",
"_	c #0B0B0B",
":	c #999999",
"<	c #ECECEC",
"[	c #9B9B9B",
"}	c #232323",
"|	c #DFDFDF",
"1	c #6E6E6E",
"2	c #1E1E1E",
"3	c #D6D6D6",
"4	c #666666",
"5	c #494949",
"6	c #FCFCFC",
"7	c #E6E6E6",
"8	c #353535",
"9	c #5B5B5B",
"0	c #EFEFEF",
"a	c #7C7C7C",
"b	c #1C1C1C",
"c	c #050505",
"d	c #767676",
"e	c #8D8D8D",
"f	c #0C0C0C",
"g	c #1A1A1A",
"h	c #1D1D1D",
"i	c #141414",
"j	c #A6A6A6",
"k	c #F1F1F1",
"l	c #E0E0E0",
"m	c #F0F0F0",
"n	c #C8C8C8",
"o	c #C7C7C7",
"p	c #EEEEEE",
"q	c #D0D0D0",
"r	c #444444",
"s	c #F4F4F4",
"t	c #969696",
"u	c #4D4D4D",
"v	c #F6F6F6",
"w	c #858585",
"x	c #1B1B1B",
"y	c #020202",
"z	c #292929",
"A	c #4C4C4C",
"B	c #222222",
"C	c #484848",
"D	c #0A0A0A",
"E	c #D3D3D3",
"F	c #FBFBFB",
"G	c #CDCDCD",
"H	c #BCBCBC",
"I	c #C5C5C5",
"J	c #B1B1B1",
"K	c #FDFDFD",
"L	c #393939",
"M	c #E9E9E9",
"N	c #949494",
"O	c #898989",
"                                ",
"                                ",
"                                ",
"                                ",
"               ........         ",
"              ..+@##$%&         ",
"             ..*=-;;->,         ",
"             .')----!~&         ",
"             .{---]>^..         ",
"            ../---(_..          ",
"            _:<--[}..           ",
"           .,|---1..            ",
"          ..23--]4.             ",
"          .5=6-78..             ",
"          .9---0ab.             ",
"         .cd--]--efghi.         ",
"         ,j]-----kllmj,         ",
"        ..n-]]-------o..        ",
"       .c^(---pqqp---(^c.       ",
"       .rs----t..t----sr.       ",
"       .u---vw}..}wv---u.       ",
"       .5---px.yy.xp---5.       ",
"       .5---0z.  .z0---5.       ",
"       .5---0z    z0---5.       ",
"       .A---0B.  .B0---A.       ",
"       .C]--m%.,,.%m--]C.       ",
"       .D$E-FGH>>HGF-E$D.       ",
"        ..I----------I..        ",
"         ,J-kK----Kk-J,         ",
"         &2BLM----MLB2&         ",
"         ....1NOON1....         ",
"            ........            "};
