/* XPM */
static char * 9_xpm[] = {
"32 32 89 1",
" 	c None",
".	c #000000",
"+	c #2D2D2D",
"@	c #3D3D3D",
"#	c #383838",
"$	c #0B0B0B",
"%	c #CFCFCF",
"&	c #FFFFFF",
"*	c #FBFBFB",
"=	c #030303",
"-	c #7D7D7D",
";	c #B4B4B4",
">	c #B6B6B6",
",	c #FAFAFA",
"'	c #CACACA",
")	c #090909",
"!	c #C4C4C4",
"~	c #353535",
"{	c #C7C7C7",
"]	c #F6F6F6",
"^	c #F4F4F4",
"/	c #5E5E5E",
"(	c #2E2E2E",
"_	c #4F4F4F",
":	c #EEEEEE",
"<	c #1C1C1C",
"[	c #494949",
"}	c #EFEFEF",
"|	c #292929",
"1	c #1E1E1E",
"2	c #4A4A4A",
"3	c #F2F2F2",
"4	c #434343",
"5	c #0D0D0D",
"6	c #1B1B1B",
"7	c #4E4E4E",
"8	c #FDFDFD",
"9	c #E8E8E8",
"0	c #E0E0E0",
"a	c #7A7A7A",
"b	c #F0F0F0",
"c	c #E2E2E2",
"d	c #020202",
"e	c #989898",
"f	c #F7F7F7",
"g	c #C1C1C1",
"h	c #707070",
"i	c #FEFEFE",
"j	c #C5C5C5",
"k	c #1A1A1A",
"l	c #606060",
"m	c #636363",
"n	c #595959",
"o	c #737373",
"p	c #A6A6A6",
"q	c #3C3C3C",
"r	c #010101",
"s	c #050505",
"t	c #575757",
"u	c #191919",
"v	c #5D5D5D",
"w	c #404040",
"x	c #F8F8F8",
"y	c #E3E3E3",
"z	c #5C5C5C",
"A	c #131313",
"B	c #333333",
"C	c #B0B0B0",
"D	c #D8D8D8",
"E	c #0F0F0F",
"F	c #D3D3D3",
"G	c #CCCCCC",
"H	c #0E0E0E",
"I	c #D6D6D6",
"J	c #9B9B9B",
"K	c #242424",
"L	c #E7E7E7",
"M	c #6E6E6E",
"N	c #727272",
"O	c #666666",
"P	c #040404",
"Q	c #A5A5A5",
"R	c #484848",
"S	c #060606",
"T	c #747474",
"U	c #9F9F9F",
"V	c #898989",
"W	c #929292",
"X	c #787878",
"                                ",
"                                ",
"                                ",
"                                ",
"            ........            ",
"           ..+@##@+..           ",
"         ...$%&**&%$...         ",
"         =-;>,&&&&,>;-=         ",
"        ..'&&&&&&&&&&'..        ",
"       ..)!&&*,**,*&&!)..       ",
"       .~{]&^/(##(/^&]{~.       ",
"       ._&&&:<....<:&&&_.       ",
"       .[&&&}|.  .|}&&&[.       ",
"       .[&&&}|.  .|}&&&[.       ",
"       .[&&&}1.  .1}&&&[.       ",
"       .2&&&34566543&&&2.       ",
"       .7&&&89000098&&&7.       ",
"       .6ab&&&&&&&&&&ca<.       ",
"       d..ef&&&&&&&&&g..d       ",
"         ..h&&&&&i&&&j=         ",
"          .klmno:&&&pqr         ",
"          d....s0&&&t..         ",
"             ..uc&&&v.          ",
"            ..w!x&yzA.          ",
"            =BC&&&D..=          ",
"            EF&&&&GH            ",
"          d..I&&&JK=            ",
"          .AhL&&&M..            ",
"         ..N&&&&&O.             ",
"         PQ&&&&fRS.             ",
"         =TUVVWX..              ",
"         ........               "};
