/* XPM */
static char * a_xpm[] = {
"32 32 70 1",
" 	c None",
".	c #000000",
"+	c #030303",
"@	c #2E2E2E",
"#	c #3C3C3C",
"$	c #383838",
"%	c #0E0E0E",
"&	c #CCCCCC",
"*	c #FFFFFF",
"=	c #FBFBFB",
"-	c #0F0F0F",
";	c #D8D8D8",
">	c #CFCFCF",
",	c #D0D0D0",
"'	c #020202",
")	c #1B1B1B",
"!	c #6F6F6F",
"~	c #E6E6E6",
"{	c #5F5F5F",
"]	c #FEFEFE",
"^	c #5D5D5D",
"/	c #5B5B5B",
"(	c #535353",
"_	c #B7B7B7",
":	c #7F7F7F",
"<	c #010101",
"[	c #111111",
"}	c #808080",
"|	c #747474",
"1	c #B5B5B5",
"2	c #F8F8F8",
"3	c #040404",
"4	c #B1B1B1",
"5	c #888888",
"6	c #919191",
"7	c #050505",
"8	c #C7C7C7",
"9	c #828282",
"0	c #7B7B7B",
"a	c #BDBDBD",
"b	c #A5A5A5",
"c	c #303030",
"d	c #FDFDFD",
"e	c #FAFAFA",
"f	c #BCBCBC",
"g	c #090909",
"h	c #C4C4C4",
"i	c #353535",
"j	c #F6F6F6",
"k	c #F4F4F4",
"l	c #5E5E5E",
"m	c #373737",
"n	c #4F4F4F",
"o	c #EEEEEE",
"p	c #1C1C1C",
"q	c #434343",
"r	c #BABABA",
"s	c #4A4A4A",
"t	c #F0F0F0",
"u	c #292929",
"v	c #232323",
"w	c #4E4E4E",
"x	c #2B2B2B",
"y	c #282828",
"z	c #272727",
"A	c #8B8B8B",
"B	c #8D8D8D",
"C	c #909090",
"D	c #818181",
"E	c #161616",
"                                ",
"                                ",
"                                ",
"                                ",
"            ........            ",
"            +@#$$#@+            ",
"            %&*==*&%            ",
"            -;****;-            ",
"            ->****>-            ",
"            %,****,%            ",
"          '..>****>..'          ",
"          .)!~****~!).          ",
"          .{**]**]**{.          ",
"          .^********^.          ",
"          ./********/.          ",
"          ./********/.          ",
"          ./*****]**/.          ",
"         ..(**_:]***(..         ",
"         <[}**|.12**}[<         ",
"         34***5..6***43         ",
"         78***9..0***87         ",
"         3a***bccb***a3         ",
"         3a***deed***a3         ",
"         3a**]****]**a3         ",
"        ..f*******]**f..        ",
"       ..gh**=eeed***hg..       ",
"       .i8j*kl@mc4***j8i.       ",
"       .n***op...qre***n.       ",
"       .s***tu  <.vt***s.       ",
"       .w****x.  .y****w.       ",
"       .zABCDE.  .EDCBAz.       ",
"       '......'  '......'       "};
