/* XPM */
static char * d_xpm[] = {
"32 32 64 1",
" 	c None",
".	c #000000",
"+	c #101010",
"@	c #393939",
"#	c #3A3A3A",
"$	c #383838",
"%	c #3B3B3B",
"&	c #484848",
"*	c #FEFEFE",
"=	c #FFFFFF",
"-	c #FBFBFB",
";	c #5D5D5D",
">	c #4C4C4C",
",	c #E0E0E0",
"'	c #7B7B7B",
")	c #030303",
"!	c #494949",
"~	c #CCCCCC",
"{	c #FAFAFA",
"]	c #FDFDFD",
"^	c #C4C4C4",
"/	c #090909",
"(	c #F4F4F4",
"_	c #5E5E5E",
":	c #2E2E2E",
"<	c #373737",
"[	c #303030",
"}	c #B1B1B1",
"|	c #F6F6F6",
"1	c #C7C7C7",
"2	c #353535",
"3	c #EEEEEE",
"4	c #1C1C1C",
"5	c #434343",
"6	c #BABABA",
"7	c #4F4F4F",
"8	c #EFEFEF",
"9	c #292929",
"0	c #010101",
"a	c #232323",
"b	c #252525",
"c	c #222222",
"d	c #F0F0F0",
"e	c #2F2F2F",
"f	c #040404",
"g	c #CDCDCD",
"h	c #BCBCBC",
"i	c #BDBDBD",
"j	c #D3D3D3",
"k	c #414141",
"l	c #0A0A0A",
"m	c #C6C6C6",
"n	c #4A4A4A",
"o	c #B0B0B0",
"p	c #4E4E4E",
"q	c #878787",
"r	c #272727",
"s	c #8B8B8B",
"t	c #8D8D8D",
"u	c #898989",
"v	c #8C8C8C",
"w	c #8F8F8F",
"x	c #282828",
"y	c #020202",
"                                ",
"                                ",
"                                ",
"                                ",
"        .............           ",
"       .+@#$$$$$$$#%+.          ",
"       .&*=-------==;..         ",
"       .>===========,')         ",
"       .!=========**=~..        ",
"       .!====-{{{]===^/..       ",
"       .!===(_:<[}===|12.       ",
"       .!===34...56{===7.       ",
"       .!===89  0.a8===!.       ",
"       .!===89.  .b8===!.       ",
"       .!===89.  .98===!.       ",
"       .!===89.  .98===!.       ",
"       .!===89.  .98===!.       ",
"       .!===89.  .98===!.       ",
"       .!===89.  .98===!.       ",
"       .!===89.  .98===!.       ",
"       .!===89.  .98===!.       ",
"       .!===89.  .98===!.       ",
"       .!===89.  .98===!.       ",
"       .!===89.  .98===!.       ",
"       .!===8c.  .c8===>.       ",
"       .!===de.ff.ed==*&.       ",
"       .!===-ghiihg-=jkl.       ",
"       .!==*=========m..        ",
"       .n============of         ",
"       .p===========q+0         ",
"       .rstuuuuuuuvwx..         ",
"       y.............0          "};
