/* XPM */
static char * f_xpm[] = {
"32 32 51 1",
" 	c None",
".	c #000000",
"+	c #010101",
"@	c #2A2A2A",
"#	c #3C3C3C",
"$	c #383838",
"%	c #040404",
"&	c #BABABA",
"*	c #FFFFFF",
"=	c #FBFBFB",
"-	c #C5C5C5",
";	c #BDBDBD",
">	c #FEFEFE",
",	c #FDFDFD",
"'	c #FAFAFA",
")	c #A6A6A6",
"!	c #313131",
"~	c #373737",
"{	c #7E7E7E",
"]	c #828282",
"^	c #818181",
"/	c #7F7F7F",
"(	c #979797",
"_	c #101010",
":	c #191919",
"<	c #1B1B1B",
"[	c #1C1C1C",
"}	c #0A0A0A",
"|	c #F2F2F2",
"1	c #E1E1E1",
"2	c #E0E0E0",
"3	c #E5E5E5",
"4	c #E9E9E9",
"5	c #505050",
"6	c #616161",
"7	c #5D5D5D",
"8	c #5F5F5F",
"9	c #B7B7B7",
"0	c #585858",
"a	c #5A5A5A",
"b	c #5B5B5B",
"c	c #212121",
"d	c #020202",
"e	c #BEBEBE",
"f	c #050505",
"g	c #CACACA",
"h	c #8B8B8B",
"i	c #666666",
"j	c #939393",
"k	c #8A8A8A",
"l	c #464646",
"                                ",
"                                ",
"                                ",
"                                ",
"         ..............         ",
"         +@#$$$$$$$$#@+         ",
"         %&*========*&%         ",
"         %-**********-%         ",
"         %;**>*******-%         ",
"         %;***,''===*&%         ",
"         %;***)!~$$$#@+         ",
"         %;***{........         ",
"         %;***].                ",
"         %;***^.                ",
"         %;***/..               ",
"         %;***(_:<<[}.          ",
"         %;***|122345.          ",
"         %;**>******6.          ",
"         %;*********7.          ",
"         %;**>******8.          ",
"         %;***90ab78c.          ",
"         %;***/......d          ",
"         %;***].                ",
"         %;***].                ",
"         %;***].                ",
"         %;***].                ",
"         %;***].                ",
"         %;***].                ",
"         %e***].                ",
"         fg***h.                ",
"         dijkjl.                ",
"         ......+                "};
