/* XPM */
static char * h_xpm[] = {
"32 32 43 1",
" 	c None",
".	c #000000",
"+	c #101010",
"@	c #393939",
"#	c #3A3A3A",
"$	c #3B3B3B",
"%	c #353535",
"&	c #090909",
"*	c #484848",
"=	c #FEFEFE",
"-	c #FFFFFF",
";	c #EBEBEB",
">	c #282828",
",	c #4C4C4C",
"'	c #F8F8F8",
")	c #2A2A2A",
"!	c #494949",
"~	c #EFEFEF",
"{	c #292929",
"]	c #1E1E1E",
"^	c #F2F2F2",
"/	c #434343",
"(	c #0D0D0D",
"_	c #1B1B1B",
":	c #FDFDFD",
"<	c #E8E8E8",
"[	c #E0E0E0",
"}	c #F6F6F6",
"|	c #7D7D7D",
"1	c #555555",
"2	c #5B5B5B",
"3	c #1C1C1C",
"4	c #4A4A4A",
"5	c #F0F0F0",
"6	c #4E4E4E",
"7	c #2C2C2C",
"8	c #272727",
"9	c #8B8B8B",
"0	c #8D8D8D",
"a	c #909090",
"b	c #818181",
"c	c #161616",
"d	c #020202",
"                                ",
"                                ",
"                                ",
"                                ",
"        ......    ......        ",
"       .+@#$%&.  .&%$#@+.       ",
"       .*=--;>.  .>;--=*.       ",
"       .,---').  .)'---,.       ",
"       .!---~{.  .{~---!.       ",
"       .!---~{.  .{~---!.       ",
"       .!---~{.  .{~---!.       ",
"       .!---~{.  .{~---!.       ",
"       .!---~{.  .{~---!.       ",
"       .!---~{.  .{~---!.       ",
"       .!---~].  .]~---!.       ",
"       .!---^/(__(/^---!.       ",
"       .!---:<[[[[<:---!.       ",
"       .!--=--------=--!.       ",
"       .!--------------!.       ",
"       .!--------------!.       ",
"       .!---}|1221|}---!.       ",
"       .!---~3....3~---!.       ",
"       .!---~{.  .{~---!.       ",
"       .!---~{.  .{~---!.       ",
"       .!---~{.  .{~---!.       ",
"       .!---~{.  .{~---!.       ",
"       .!---~{.  .{~---!.       ",
"       .!---~{.  .{~---!.       ",
"       .4---5{.  .{5---4.       ",
"       .6----7.  .7----6.       ",
"       .890abc.  .cba098.       ",
"       d......d  d......d       "};
