/* XPM */
static char * p_xpm[] = {
"32 32 56 1",
" 	c None",
".	c #000000",
"+	c #101010",
"@	c #393939",
"#	c #3A3A3A",
"$	c #383838",
"%	c #3B3B3B",
"&	c #484848",
"*	c #FEFEFE",
"=	c #FFFFFF",
"-	c #FBFBFB",
";	c #5D5D5D",
">	c #4C4C4C",
",	c #E1E1E1",
"'	c #797979",
")	c #494949",
"!	c #E8E8E8",
"~	c #535353",
"{	c #0F0F0F",
"]	c #FAFAFA",
"^	c #4A4A4A",
"/	c #F4F4F4",
"(	c #5E5E5E",
"_	c #2E2E2E",
":	c #EEEEEE",
"<	c #1C1C1C",
"[	c #EFEFEF",
"}	c #292929",
"|	c #272727",
"1	c #202020",
"2	c #F8F8F8",
"3	c #9E9E9E",
"4	c #7E7E7E",
"5	c #818181",
"6	c #4F4F4F",
"7	c #D7D7D7",
"8	c #CFCFCF",
"9	c #141414",
"0	c #AEAEAE",
"a	c #CDCDCD",
"b	c #BCBCBC",
"c	c #BDBDBD",
"d	c #C1C1C1",
"e	c #C5C5C5",
"f	c #F0F0F0",
"g	c #2F2F2F",
"h	c #040404",
"i	c #010101",
"j	c #222222",
"k	c #4E4E4E",
"l	c #2C2C2C",
"m	c #8B8B8B",
"n	c #8D8D8D",
"o	c #909090",
"p	c #161616",
"q	c #020202",
"                                ",
"                                ",
"                                ",
"                                ",
"        .............           ",
"       .+@#$$$$$$$#%+.          ",
"       .&*=-------==;..         ",
"       .>===========,'..        ",
"       .)============!~{.       ",
"       .)====-]--]-====^.       ",
"       .)===/(_$$_(/===>.       ",
"       .)===:<....<:===).       ",
"       .)===[}.  .}[===).       ",
"       .)===[}.  .}[===).       ",
"       .)===[}.  .}[===).       ",
"       .)===[|.  .|[===).       ",
"       .)===[1....1[===).       ",
"       .)===23455432===6.       ",
"       .)==*==========7#.       ",
"       .)============89..       ",
"       .)==*========0@..        ",
"       .)===-abcccde%..         ",
"       .)===fg.hhhhhi.          ",
"       .)===[j.                 ",
"       .)===[}.                 ",
"       .)===[}.                 ",
"       .)===[}.                 ",
"       .)===[}.                 ",
"       .^===f}.                 ",
"       .k====l.                 ",
"       .|mno5p.                 ",
"       q......q                 "};
