/* XPM */
static char * q_xpm[] = {
"32 32 66 1",
" 	c None",
".	c #000000",
"+	c #212121",
"@	c #2C2C2C",
"#	c #292929",
"$	c #2A2A2A",
"%	c #2B2B2B",
"&	c #0C0C0C",
"*	c #050505",
"=	c #C4C4C4",
"-	c #FFFFFF",
";	c #EFEFEF",
">	c #F4F4F4",
",	c #F9F9F9",
"'	c #555555",
")	c #030303",
"!	c #6F6F6F",
"~	c #9E9E9E",
"{	c #A4A4A4",
"]	c #D3D3D3",
"^	c #6B6B6B",
"/	c #020202",
"(	c #CACACA",
"_	c #CCCCCC",
":	c #010101",
"<	c #C2C2C2",
"[	c #2F2F2F",
"}	c #B4B4B4",
"|	c #F2F2F2",
"1	c #F5F5F5",
"2	c #6D6D6D",
"3	c #414141",
"4	c #494949",
"5	c #4F4F4F",
"6	c #EEEEEE",
"7	c #1B1B1B",
"8	c #4C4C4C",
"9	c #242424",
"0	c #4A4A4A",
"a	c #F0F0F0",
"b	c #282828",
"c	c #0F0F0F",
"d	c #535353",
"e	c #D8D8D8",
"f	c #FAFAFA",
"g	c #BEBEBE",
"h	c #A8A8A8",
"i	c #A9A9A9",
"j	c #C3C3C3",
"k	c #040404",
"l	c #BABABA",
"m	c #FBFBFB",
"n	c #FEFEFE",
"o	c #343434",
"p	c #EDEDED",
"q	c #8C8C8C",
"r	c #1F1F1F",
"s	c #787878",
"t	c #A0A0A0",
"u	c #969696",
"v	c #979797",
"w	c #848484",
"x	c #5B5B5B",
"y	c #818181",
"z	c #828282",
"A	c #C9C9C9",
"                                ",
"            .........           ",
"           ..+@###$%&.          ",
"         ...*=-;;;>,'..         ",
"         )!~{,------]^/         ",
"         .(----------_.         ",
"       ..:<----------<:..       ",
"       .[}|-12344321-|}[.       ",
"       .5---67....76---5.       ",
"       .4---;#.  .#;---4.       ",
"       .4---;#.  .#;---4.       ",
"       .4---;#.  .#;---4.       ",
"       .4---;#.  .#;---4.       ",
"       .4---;#.  .#;---4.       ",
"       .4---;#.  .#;---4.       ",
"       .4---;#.  .#;---4.       ",
"       .4---;#.  .#;---4.       ",
"       .4---;#.  .#;---4.       ",
"       .4---;#.  .#;---4.       ",
"       .4---;#.  .#;---4.       ",
"       .4---;#.  .#;---4.       ",
"       .8---;9.  .9;---8.       ",
"       .0---ab....ba---0.       ",
"       .cde-fghiihgf-edc.       ",
"        ..j----------=..        ",
"         kl-mn-------lk         ",
"         :$o4p------qr:         ",
"         ....stuv]--d..         ",
"            .....w--x.          ",
"                .y--'..         ",
"                .y--}8/         ",
"                .z---A*         "};
