/* XPM */
static char * s_xpm[] = {
"32 32 117 2",
"  	c None",
". 	c #000000",
"+ 	c #2D2D2D",
"@ 	c #3D3D3D",
"# 	c #383838",
"$ 	c #3A3A3A",
"% 	c #3B3B3B",
"& 	c #101010",
"* 	c #0B0B0B",
"= 	c #CFCFCF",
"- 	c #FFFFFF",
"; 	c #FBFBFB",
"> 	c #5D5D5D",
", 	c #030303",
"' 	c #7D7D7D",
") 	c #B4B4B4",
"! 	c #B6B6B6",
"~ 	c #FAFAFA",
"{ 	c #E1E1E1",
"] 	c #797979",
"^ 	c #CACACA",
"/ 	c #E8E8E8",
"( 	c #535353",
"_ 	c #0F0F0F",
": 	c #090909",
"< 	c #C4C4C4",
"[ 	c #4A4A4A",
"} 	c #353535",
"| 	c #C7C7C7",
"1 	c #F6F6F6",
"2 	c #F4F4F4",
"3 	c #5E5E5E",
"4 	c #2E2E2E",
"5 	c #616161",
"6 	c #515151",
"7 	c #4F4F4F",
"8 	c #EEEEEE",
"9 	c #1C1C1C",
"0 	c #8C8C8C",
"a 	c #9E9E9E",
"b 	c #9A9A9A",
"c 	c #989898",
"d 	c #2B2B2B",
"e 	c #EFEFEF",
"f 	c #282828",
"g 	c #010101",
"h 	c #1D1D1D",
"i 	c #222222",
"j 	c #8E8E8E",
"k 	c #E7E7E7",
"l 	c #F7F7F7",
"m 	c #717171",
"n 	c #606060",
"o 	c #020202",
"p 	c #C0C0C0",
"q 	c #F3F3F3",
"r 	c #373737",
"s 	c #151515",
"t 	c #C9C9C9",
"u 	c #FEFEFE",
"v 	c #E6E6E6",
"w 	c #F0F0F0",
"x 	c #B7B7B7",
"y 	c #4B4B4B",
"z 	c #BABABA",
"A 	c #F8F8F8",
"B 	c #929292",
"C 	c #898989",
"D 	c #434343",
"E 	c #D8D8D8",
"F 	c #D4D4D4",
"G 	c #EAEAEA",
"H 	c #DCDCDC",
"I 	c #303030",
"J 	c #040404",
"K 	c #050505",
"L 	c #0E0E0E",
"M 	c #838383",
"N 	c #444444",
"O 	c #232323",
"P 	c #585858",
"Q 	c #C2C2C2",
"R 	c #FDFDFD",
"S 	c #4D4D4D",
"T 	c #5A5A5A",
"U 	c #FCFCFC",
"V 	c #494949",
"W 	c #2F2F2F",
"X 	c #313131",
"Y 	c #ACACAC",
"Z 	c #AFAFAF",
"` 	c #B3B3B3",
" .	c #9F9F9F",
"..	c #0D0D0D",
"+.	c #212121",
"@.	c #525252",
"#.	c #767676",
"$.	c #171717",
"%.	c #484848",
"&.	c #0A0A0A",
"*.	c #414141",
"=.	c #D3D3D3",
"-.	c #BEBEBE",
";.	c #BDBDBD",
">.	c #BCBCBC",
",.	c #CDCDCD",
"'.	c #C5C5C5",
").	c #A1A1A1",
"!.	c #B1B1B1",
"~.	c #F1F1F1",
"{.	c #1E1E1E",
"].	c #393939",
"^.	c #E9E9E9",
"/.	c #878787",
"(.	c #6E6E6E",
"_.	c #949494",
":.	c #8F8F8F",
"                                                                ",
"                                                                ",
"                                                                ",
"                                                                ",
"                        . . . . . . . . .                       ",
"                      . . + @ # # # $ % & .                     ",
"                  . . . * = - ; ; ; - - > . .                   ",
"                  , ' ) ! ~ - - - - - - { ] . .                 ",
"                . . ^ - - - - - - - - - - / ( _ .               ",
"              . . : < - - ; ~ ; ; ~ ; - - - - [ .               ",
"              . } | 1 - 2 3 4 # # + 5 - - - - 6 .               ",
"              . 7 - - - 8 9 . . . . * 0 a b c d .               ",
"              . [ - - - e f .     g . . . . . . g               ",
"              . 7 - - - e h . . .                               ",
"              . i j k - l j m n . .                             ",
"              o . . p - - - - q r & s .                         ",
"                  o t - - - - u v w x . . . .                   ",
"                  o y z - - - - - - A B C > . .                 ",
"                  . . D E F G - - - - - - H I J .               ",
"                    . K L . M - - - - - - - 2 N .               ",
"                          . O n P Q - - R - - S .               ",
"                          . . . . T H U - - - V .               ",
"              . . . . . . .     . . W w - - - V .               ",
"              . X Y Z `  .... o   . +.e - - - V .               ",
"              . @.- - - - #.$..   . i e - - - V .               ",
"              . %.u - - - - j . o . W w - - - V .               ",
"              . &.*.=.- - - / -.;.>.,.; - - - 7 .               ",
"                . . '.- - - - - - - - - - l ).f .               ",
"                  J !.- ~.R - - - - - - - ` . . g               ",
"                  g {.i ].^.- - - - - - /._ .                   ",
"                  . . . . (._.C C C 0 :.f . .                   ",
"                        . . . . . . . . . g                     "};
