/* XPM */
static char * v_xpm[] = {
"32 32 73 1",
" 	c None",
".	c #000000",
"+	c #2A2A2A",
"@	c #424242",
"#	c #383838",
"$	c #3B3B3B",
"%	c #353535",
"&	c #090909",
"*	c #AAAAAA",
"=	c #FFFFFF",
"-	c #FAFAFA",
";	c #EBEBEB",
">	c #282828",
",	c #2D2D2D",
"'	c #969696",
")	c #F8F8F8",
"!	c #3F3F3F",
"~	c #EFEFEF",
"{	c #292929",
"]	c #494949",
"^	c #4F4F4F",
"/	c #EEEEEE",
"(	c #1B1B1B",
"_	c #020202",
":	c #A1A1A1",
"<	c #EDEDED",
"[	c #F6F6F6",
"}	c #848484",
"|	c #272727",
"1	c #1F1F1F",
"2	c #010101",
"3	c #C0C0C0",
"4	c #909090",
"5	c #393939",
"6	c #F1F1F1",
"7	c #BDBDBD",
"8	c #8C8C8C",
"9	c #6E6E6E",
"0	c #E9E9E9",
"a	c #FDFDFD",
"b	c #040404",
"c	c #898989",
"d	c #949494",
"e	c #888888",
"f	c #8A8A8A",
"g	c #828282",
"h	c #050505",
"i	c #CBCBCB",
"j	c #D2D2D2",
"k	c #6F6F6F",
"l	c #797979",
"m	c #030303",
"n	c #999999",
"o	c #F4F4F4",
"p	c #F5F5F5",
"q	c #6D6D6D",
"r	c #FEFEFE",
"s	c #F7F7F7",
"t	c #555555",
"u	c #5B5B5B",
"v	c #636363",
"w	c #3A3A3A",
"x	c #BCBCBC",
"y	c #0B0B0B",
"z	c #D3D3D3",
"A	c #080808",
"B	c #CFCFCF",
"C	c #0F0F0F",
"D	c #D0D0D0",
"E	c #101010",
"F	c #DDDDDD",
"G	c #707070",
"H	c #939393",
"                                ",
"                                ",
"                                ",
"                                ",
"      ........    ........      ",
"      .+@##$%&.  .&%$##@+.      ",
"      .*=--=;>.  .>;=--=*.      ",
"      .,'===)+.  .+)===',.      ",
"      ..!===~{.  .{~===!..      ",
"       .]===~{.  .{~===].       ",
"       .^===/(._  {~===^.       ",
"       .>:<=[}|. .1~=<:>.       ",
"       2..3===4...56=3..2       ",
"         .7===8..90a=7.         ",
"         b7===c..d===7b         ",
"         b7===e..f===7b         ",
"         b7===g..f===7b         ",
"         hi===jk.l===ih         ",
"         mno===p54==onm         ",
"         ..q===r6s==q..         ",
"          .t==r=====t.          ",
"          .u========u.          ",
"          .u========u.          ",
"          .v==r==r==v.          ",
"          .wxp====pxw.          ",
"          ..yz====zy..          ",
"           .AB====BA.           ",
"            CB====BC            ",
"            CD====DC            ",
"            EF====FE            ",
"            AGHccHGA            ",
"            ........            "};
