/* XPM */
static char * y_xpm[] = {
"32 32 60 1",
" 	c None",
".	c #000000",
"+	c #2A2A2A",
"@	c #424242",
"#	c #383838",
"$	c #3B3B3B",
"%	c #353535",
"&	c #090909",
"*	c #AAAAAA",
"=	c #FFFFFF",
"-	c #FAFAFA",
";	c #EBEBEB",
">	c #282828",
",	c #2D2D2D",
"'	c #969696",
")	c #F8F8F8",
"!	c #1C1C1C",
"~	c #020202",
"{	c #F5F5F5",
"]	c #737373",
"^	c #1E1E1E",
"/	c #484848",
"(	c #FEFEFE",
"_	c #8C8C8C",
":	c #0A0A0A",
"<	c #414141",
"[	c #D3D3D3",
"}	c #8E8E8E",
"|	c #C6C6C6",
"1	c #848484",
"2	c #BCBCBC",
"3	c #040404",
"4	c #B1B1B1",
"5	c #909090",
"6	c #BEBEBE",
"7	c #010101",
"8	c #111111",
"9	c #808080",
"0	c #D1D1D1",
"a	c #CBCBCB",
"b	c #050505",
"c	c #535353",
"d	c #C1C1C1",
"e	c #5C5C5C",
"f	c #595959",
"g	c #616161",
"h	c #606060",
"i	c #222222",
"j	c #838383",
"k	c #EAEAEA",
"l	c #D0D0D0",
"m	c #0E0E0E",
"n	c #0F0F0F",
"o	c #CFCFCF",
"p	c #101010",
"q	c #DDDDDD",
"r	c #080808",
"s	c #707070",
"t	c #939393",
"u	c #898989",
"                                ",
"                                ",
"                                ",
"                                ",
"      ........    ........      ",
"      .+@##$%&.  .&%$##@+.      ",
"      .*=--=;>.  .>;=--=*.      ",
"      .,'===)!.~~.!)===',.      ",
"      ..@==={]^..^]{===@..      ",
"       ./(====_.._====(/.       ",
"       .:<[===}..}===[<:.       ",
"        ..|===1..1===2..        ",
"         34===5..5===63         ",
"         789==;00;===ab         ",
"         ..c========de~         ",
"          .e========f..         ",
"          .g==(==(==h.          ",
"          .ijk====kji.          ",
"          ~..l====l..~          ",
"            ml====lm            ",
"            no====on            ",
"            nl====ln            ",
"            nl====ln            ",
"            nl====ln            ",
"            nl====ln            ",
"            nl====ln            ",
"            nl====ln            ",
"            nl====ln            ",
"            nl====ln            ",
"            pq====qp            ",
"            rstuutsr            ",
"            ........            "};
