/* XPM */
static char * z_xpm[] = {
"32 32 105 2",
"  	c None",
". 	c #000000",
"+ 	c #010101",
"@ 	c #131313",
"# 	c #393939",
"$ 	c #3D3D3D",
"% 	c #3B3B3B",
"& 	c #121212",
"* 	c #040404",
"= 	c #4B4B4B",
"- 	c #E3E3E3",
"; 	c #F6F6F6",
"> 	c #EDEDED",
", 	c #E4E4E4",
"' 	c #4D4D4D",
") 	c #050505",
"! 	c #555555",
"~ 	c #E9E9E9",
"{ 	c #FFFFFF",
"] 	c #E8E8E8",
"^ 	c #5B5B5B",
"/ 	c #F1F1F1",
"( 	c #A8A8A8",
"_ 	c #303030",
": 	c #020202",
"< 	c #ECECEC",
"[ 	c #FEFEFE",
"} 	c #C4C4C4",
"| 	c #171717",
"1 	c #383838",
"2 	c #535353",
"3 	c #C9C9C9",
"4 	c #070707",
"5 	c #0F0F0F",
"6 	c #F9F9F9",
"7 	c #C6C6C6",
"8 	c #5F5F5F",
"9 	c #0A0A0A",
"0 	c #E2E2E2",
"a 	c #EFEFEF",
"b 	c #787878",
"c 	c #1B1B1B",
"d 	c #6B6B6B",
"e 	c #030303",
"f 	c #202020",
"g 	c #7C7C7C",
"h 	c #F0F0F0",
"i 	c #6F6F6F",
"j 	c #111111",
"k 	c #636363",
"l 	c #DBDBDB",
"m 	c #5D5D5D",
"n 	c #080808",
"o 	c #BFBFBF",
"p 	c #3F3F3F",
"q 	c #1A1A1A",
"r 	c #D1D1D1",
"s 	c #B9B9B9",
"t 	c #373737",
"u 	c #2E2E2E",
"v 	c #A6A6A6",
"w 	c #7D7D7D",
"x 	c #1F1F1F",
"y 	c #3C3C3C",
"z 	c #BEBEBE",
"A 	c #858585",
"B 	c #292929",
"C 	c #060606",
"D 	c #313131",
"E 	c #969696",
"F 	c #585858",
"G 	c #747474",
"H 	c #CFCFCF",
"I 	c #454545",
"J 	c #0B0B0B",
"K 	c #E6E6E6",
"L 	c #282828",
"M 	c #EBEBEB",
"N 	c #0D0D0D",
"O 	c #323232",
"P 	c #A5A5A5",
"Q 	c #0C0C0C",
"R 	c #ADADAD",
"S 	c #272727",
"T 	c #101010",
"U 	c #C7C7C7",
"V 	c #BBBBBB",
"W 	c #BABABA",
"X 	c #C1C1C1",
"Y 	c #AEAEAE",
"Z 	c #757575",
"` 	c #E1E1E1",
" .	c #F3F3F3",
"..	c #545454",
"+.	c #505050",
"@.	c #565656",
"#.	c #575757",
"$.	c #F8F8F8",
"%.	c #F2F2F2",
"&.	c #DFDFDF",
"*.	c #515151",
"=.	c #949494",
"-.	c #9F9F9F",
";.	c #989898",
">.	c #999999",
"                                                                ",
"                                                                ",
"                                                                ",
"                                                                ",
"                . . . . . . . . . . . . . . . .                 ",
"              + @ # $ % % % % % % % % % % $ # & +               ",
"              * = - ; > > > > > > > > > > ; , ' *               ",
"              ) ! ~ { { { { { { { { { { { { ] ^ )               ",
"              ) ! ~ { { { { { { { { { { { / ( _ :               ",
"              * = - ; > > < > / [ { { { { } | ) :               ",
"              + @ # $ % % # 1 2 < { { { { 3 4 .                 ",
"                . . . . .   . 5 - { { 6 7 8 4                   ",
"                            . 9 0 { { a b . .                   ",
"                            + c , { { < d .                     ",
"                          e f g h { { / i .                     ",
"                          j k { { { { l m .                     ",
"                        . n ^ { { { o p . .                     ",
"                        q d r { { { s t .                       ",
"                      . u v { { { 0 w x .                       ",
"                    . . y z { { { A B C                         ",
"                    . D E - { { { F C .                         ",
"                    . G 6 { { 6 H I J                           ",
"                    . d > { { K L . .                           ",
"                  . . i M { { - N .                             ",
"                  e O P ; { { - N .                             ",
"                  Q R { [ { { K S n Q 5 5 T 5 ) .               ",
"                . . o { { { { 6 U V W V V X Y % e               ",
"              : x Z ` { { { { { { { { { { {  ...)               ",
"              * +.K { { { { { { { { { { { { M @.)               ",
"              ) #.0 $./ %.%.%.%.%.%.%.%./ $.&.*.*               ",
"              e _ =.-.;.>.>.>.>.>.>.>.>.;.-.=._ e               ",
"              + . . . . . . . . . . . . . . . . +               "};
