/* XPM */
static const char * q_xpm[] = {
"36 36 4 1",
" 	c None",
".	c #FF96FF",
"+	c #FFFFFF",
"@	c #000000",
"                                    ",
"            .+++++++++.             ",
"         .+++@@@@@@@@@+++.          ",
"        .+@@@@@@@@@@@@@@@+.         ",
"      .++@@@@@@@@@@@@@@@@@++.       ",
"     .+@@@@@@@@@@@@@@@@@@@@@+.      ",
"    .+@@@@@@@@@@+++@@@@@@@@@@+.     ",
"    +@@@@@@@@+++. .+++@@@@@@@@+     ",
"   .+@@@@@@++.       .++@@@@@@+.    ",
"   +@@@@@@+.           .+@@@@@@+.   ",
"  .+@@@@@+.             .+@@@@@@+   ",
"  +@@@@@+.               .+@@@@@+.  ",
" .+@@@@@+                 +@@@@@@+  ",
" +@@@@@+.                 .+@@@@@+  ",
" +@@@@@+                   +@@@@@+  ",
" +@@@@@+                   .+@@@@+  ",
" +@@@@+.                    +@@@@+. ",
" +@@@@+                     +@@@@@+ ",
" +@@@@+                     +@@@@@+ ",
" +@@@@+.      .+.           +@@@@@+ ",
" +@@@@@+      +@+++++++.    +@@@@+. ",
" +@@@@@+      .+@@@@@@@+.  .+@@@@+  ",
" +@@@@@+       .+@@@@@@@+. +@@@@@+  ",
" .+@@@@+.       .+@@@@@@@+.+@@@@@+  ",
"  +@@@@@+.       .++@@@@@@+@@@@@+.  ",
"  +@@@@@@+         .+@@@@@@@@@@@+   ",
"  .+@@@@@+.         .+@@@@@@@@@+.   ",
"   .+@@@@@++.        .+@@@@@@@@+    ",
"    +@@@@@@@++.      .++@@@@@@+.    ",
"    .+@@@@@@@@++++++++@@@@@@@@@+.   ",
"     .+@@@@@@@@@@@@@@@@@@@@@@@@@+.  ",
"      .+@@@@@@@@@@@@@@@@@@@@@@@@@+. ",
"       .++@@@@@@@@@@@@@@@@++@@@@@@++",
"         .+@@@@@@@@@@@@@++..+@@@@@@@",
"          .++++@@@@@++++.   .+++++++",
"              .+++++.               "};
