/* XPM */
static char * 0_xpm[] = {
"32 32 49 1",
" 	c None",
".	c #000000",
"+	c #101010",
"@	c #3B3B3B",
"#	c #3A3A3A",
"$	c #383838",
"%	c #5D5D5D",
"&	c #FFFFFF",
"*	c #FBFBFB",
"=	c #030303",
"-	c #7B7B7B",
";	c #E0E0E0",
">	c #CCCCCC",
",	c #090909",
"'	c #C4C4C4",
")	c #FAFAFA",
"!	c #353535",
"~	c #C7C7C7",
"{	c #F6F6F6",
"]	c #F4F4F4",
"^	c #5E5E5E",
"/	c #2E2E2E",
"(	c #4F4F4F",
"_	c #EEEEEE",
":	c #1C1C1C",
"<	c #494949",
"[	c #EFEFEF",
"}	c #292929",
"|	c #4C4C4C",
"1	c #222222",
"2	c #484848",
"3	c #FEFEFE",
"4	c #F0F0F0",
"5	c #2F2F2F",
"6	c #040404",
"7	c #0A0A0A",
"8	c #414141",
"9	c #D3D3D3",
"0	c #CDCDCD",
"a	c #BCBCBC",
"b	c #BDBDBD",
"c	c #C6C6C6",
"d	c #B0B0B0",
"e	c #010101",
"f	c #878787",
"g	c #282828",
"h	c #8F8F8F",
"i	c #8C8C8C",
"j	c #898989",
"                                ",
"                                ",
"                                ",
"                                ",
"           ..........           ",
"          .+@#$$$$#@+.          ",
"         ..%&&****&&%..         ",
"         =-;&&&&&&&&;-=         ",
"        ..>&&&&&&&&&&>..        ",
"       ..,'&&*)**)*&&',..       ",
"       .!~{&]^/$$/^]&{~!.       ",
"       .(&&&_:....:_&&&(.       ",
"       .<&&&[}.  .}[&&&<.       ",
"       .<&&&[}.  .}[&&&<.       ",
"       .<&&&[}.  .}[&&&<.       ",
"       .<&&&[}.  .}[&&&<.       ",
"       .<&&&[}.  .}[&&&<.       ",
"       .<&&&[}.  .}[&&&<.       ",
"       .<&&&[}.  .}[&&&<.       ",
"       .<&&&[}.  .}[&&&<.       ",
"       .<&&&[}.  .}[&&&<.       ",
"       .<&&&[}.  .}[&&&<.       ",
"       .<&&&[}.  .}[&&&<.       ",
"       .<&&&[}.  .}[&&&<.       ",
"       .|&&&[1.  .1[&&&|.       ",
"       .23&&45.66.54&&32.       ",
"       .789&*0abba0*&987.       ",
"        ..c&&&&&&&&&&c..        ",
"         6d&&&&&&&&&&d6         ",
"         e+f&&&&&&&&f+e         ",
"         ..ghijjjjihg..         ",
"          e..........e          "};
