/* XPM */
static char * 7_xpm[] = {
"32 32 82 1",
" 	c None",
".	c #000000",
"+	c #101010",
"@	c #393939",
"#	c #3A3A3A",
"$	c #383838",
"%	c #484848",
"&	c #FEFEFE",
"*	c #FFFFFF",
"=	c #FBFBFB",
"-	c #4C4C4C",
";	c #525252",
">	c #F2F2F2",
",	c #B4B4B4",
"'	c #2F2F2F",
")	c #FAFAFA",
"!	c #FDFDFD",
"~	c #C1C1C1",
"{	c #010101",
"]	c #3B3B3B",
"^	c #323232",
"/	c #A5A5A5",
"(	c #BDBDBD",
"_	c #7B7B7B",
":	c #C7C7C7",
"<	c #040404",
"[	c #919191",
"}	c #B1B1B1",
"|	c #161616",
"1	c #B8B8B8",
"2	c #F7F7F7",
"3	c #808080",
"4	c #111111",
"5	c #F0F0F0",
"6	c #535353",
"7	c #373737",
"8	c #E6E6E6",
"9	c #5C5C5C",
"0	c #606060",
"a	c #F3F3F3",
"b	c #616161",
"c	c #757575",
"d	c #EAEAEA",
"e	c #838383",
"f	c #222222",
"g	c #6D6D6D",
"h	c #D0D0D0",
"i	c #020202",
"j	c #6F6F6F",
"k	c #0E0E0E",
"l	c #080808",
"m	c #787878",
"n	c #D5D5D5",
"o	c #DFDFDF",
"p	c #E0E0E0",
"q	c #ECECEC",
"r	c #9A9A9A",
"s	c #0B0B0B",
"t	c #0F0F0F",
"u	c #030303",
"v	c #CFCFCF",
"w	c #6B6B6B",
"x	c #131313",
"y	c #E3E3E3",
"z	c #737373",
"A	c #5D5D5D",
"B	c #6C6C6C",
"C	c #575757",
"D	c #565656",
"E	c #3C3C3C",
"F	c #A6A6A6",
"G	c #C6C6C6",
"H	c #E1E1E1",
"I	c #1B1B1B",
"J	c #050505",
"K	c #CECECE",
"L	c #EFEFEF",
"M	c #1D1D1D",
"N	c #666666",
"O	c #939393",
"P	c #898989",
"Q	c #797979",
"                                ",
"                                ",
"                                ",
"                                ",
"        ................        ",
"       .+@#$$$$$$$$$$#@+.       ",
"       .%&*==========*&%.       ",
"       .-**************;.       ",
"       .-*********&**>,'.       ",
"       .%&*=====)!***~{..       ",
"       .+@#$$$#]^/***(.         ",
"        ........._***:<         ",
"               ..[***}<         ",
"               |12**34{         ",
"              .+5***6..         ",
"             ..78***9.          ",
"             .0a&***b.          ",
"             .c***def.          ",
"             .g***h..i          ",
"            ..j***hk            ",
"            lmn***o+            ",
"            +p***qrs            ",
"            th***m..            ",
"          u..v***w.             ",
"          .x9y***z.             ",
"          .A*****B.             ",
"         ..C***dDt.             ",
"         {EF***ps.              ",
"         <G****HI               ",
"         JK****LM               ",
"         iNOPP[Qk               ",
"         ........               "};
