/* XPM */
static char * b_xpm[] = {
"32 32 91 1",
" 	c None",
".	c #000000",
"+	c #101010",
"@	c #393939",
"#	c #3A3A3A",
"$	c #383838",
"%	c #3D3D3D",
"&	c #2D2D2D",
"*	c #484848",
"=	c #FEFEFE",
"-	c #FFFFFF",
";	c #FBFBFB",
">	c #CFCFCF",
",	c #0B0B0B",
"'	c #4C4C4C",
")	c #FAFAFA",
"!	c #B6B6B6",
"~	c #B4B4B4",
"{	c #7E7E7E",
"]	c #030303",
"^	c #494949",
"/	c #CBCBCB",
"(	c #050505",
"_	c #FDFDFD",
":	c #BDBDBD",
"<	c #040404",
"[	c #F4F4F4",
"}	c #5E5E5E",
"|	c #2E2E2E",
"1	c #373737",
"2	c #313131",
"3	c #A6A6A6",
"4	c #EEEEEE",
"5	c #1C1C1C",
"6	c #EFEFEF",
"7	c #292929",
"8	c #828282",
"9	c #818181",
"0	c #1E1E1E",
"a	c #7F7F7F",
"b	c #C9C9C9",
"c	c #F2F2F2",
"d	c #434343",
"e	c #0D0D0D",
"f	c #191919",
"g	c #979797",
"h	c #E8E8E8",
"i	c #E0E0E0",
"j	c #E1E1E1",
"k	c #757575",
"l	c #FCFCFC",
"m	c #DBDBDB",
"n	c #D0D0D0",
"o	c #808080",
"p	c #F1F1F1",
"q	c #0C0C0C",
"r	c #010101",
"s	c #B3B3B3",
"t	c #202020",
"u	c #222222",
"v	c #848484",
"w	c #F6F6F6",
"x	c #F7F7F7",
"y	c #A1A1A1",
"z	c #282828",
"A	c #020202",
"B	c #1A1A1A",
"C	c #4F4F4F",
"D	c #181818",
"E	c #737373",
"F	c #F5F5F5",
"G	c #F0F0F0",
"H	c #2F2F2F",
"I	c #8E8E8E",
"J	c #CDCDCD",
"K	c #BCBCBC",
"L	c #BEBEBE",
"M	c #D3D3D3",
"N	c #414141",
"O	c #0A0A0A",
"P	c #C6C6C6",
"Q	c #4A4A4A",
"R	c #B0B0B0",
"S	c #4E4E4E",
"T	c #878787",
"U	c #272727",
"V	c #8B8B8B",
"W	c #8D8D8D",
"X	c #898989",
"Y	c #8C8C8C",
"Z	c #8F8F8F",
"                                ",
"                                ",
"                                ",
"                                ",
"        ............            ",
"       .+@#$$$$$$%&..           ",
"       .*=-;;;;;;->,...         ",
"       .'---------)!~{]         ",
"       .^------------/(         ",
"       .^----;)))_---:<         ",
"       .^---[}|123---:<         ",
"       .^---45...{---:<         ",
"       .^---67  .8---:<         ",
"       .^---67  .9---:<         ",
"       .^---60. .a---b(         ",
"       .^---cdef+g--=3<         ",
"       .^---_hiijc--k(.         ",
"       .^--_--------'..         ",
"       .^---lm>>n4--o+.         ",
"       .^---p$.qrg---s..r       ",
"       .^---6t. .uvw-xyz.       ",
"       .^---67  A.B4---C.       ",
"       .^---67.  .76---^.       ",
"       .^---67  A.B4---^.       ",
"       .^---6u. .DEF---'.       ",
"       .^---GH.A.I----=*.       ",
"       .^---;JK:Lh---MNO.       ",
"       .^--=------==-P..        ",
"       .Q------------R<         ",
"       .S-----------T+r         ",
"       .UVWXXXXXXXYZz..         ",
"       A.............r          "};
