/* XPM */
static char * c_xpm[] = {
"32 32 80 1",
" 	c None",
".	c #000000",
"+	c #101010",
"@	c #3B3B3B",
"#	c #3A3A3A",
"$	c #383838",
"%	c #5D5D5D",
"&	c #FFFFFF",
"*	c #FBFBFB",
"=	c #030303",
"-	c #7B7B7B",
";	c #E0E0E0",
">	c #CCCCCC",
",	c #090909",
"'	c #C4C4C4",
")	c #FAFAFA",
"!	c #353535",
"~	c #C7C7C7",
"{	c #F6F6F6",
"]	c #F4F4F4",
"^	c #5E5E5E",
"/	c #2E2E2E",
"(	c #2D2D2D",
"_	c #616161",
":	c #D9D9D9",
"<	c #4F4F4F",
"[	c #EEEEEE",
"}	c #1C1C1C",
"|	c #0B0B0B",
"1	c #8C8C8C",
"2	c #9D9D9D",
"3	c #9F9F9F",
"4	c #A9A9A9",
"5	c #313131",
"6	c #494949",
"7	c #EFEFEF",
"8	c #292929",
"9	c #010101",
"0	c #1A1A1A",
"a	c #020202",
"b	c #4C4C4C",
"c	c #F5F5F5",
"d	c #737373",
"e	c #181818",
"f	c #050505",
"g	c #444444",
"h	c #4D4D4D",
"i	c #4E4E4E",
"j	c #545454",
"k	c #484848",
"l	c #FEFEFE",
"m	c #8E8E8E",
"n	c #303030",
"o	c #0A0A0A",
"p	c #414141",
"q	c #D3D3D3",
"r	c #E8E8E8",
"s	c #BEBEBE",
"t	c #BDBDBD",
"u	c #BBBBBB",
"v	c #CFCFCF",
"w	c #DBDBDB",
"x	c #0C0C0C",
"y	c #C6C6C6",
"z	c #C5C5C5",
"A	c #040404",
"B	c #B0B0B0",
"C	c #FDFDFD",
"D	c #F1F1F1",
"E	c #B1B1B1",
"F	c #878787",
"G	c #E9E9E9",
"H	c #393939",
"I	c #222222",
"J	c #1E1E1E",
"K	c #282828",
"L	c #8F8F8F",
"M	c #898989",
"N	c #949494",
"O	c #6E6E6E",
"                                ",
"                                ",
"                                ",
"                                ",
"           ..........           ",
"          .+@#$$$$#@+.          ",
"         ..%&&****&&%..         ",
"         =-;&&&&&&&&;-=         ",
"        ..>&&&&&&&&&&>..        ",
"       ..,'&&*)**)*&&',..       ",
"       .!~{&]^/$$(_&&&:#.       ",
"       .<&&&[}....|12345.       ",
"       .6&&&78.   ......9       ",
"       .6&&&78.                 ",
"       .6&&&78.                 ",
"       .6&&&78.                 ",
"       .6&&&78.                 ",
"       .6&&&78.                 ",
"       .6&&&78.                 ",
"       .6&&&78.                 ",
"       .6&&&78.                 ",
"       .6&&&78.                 ",
"       .6&&&78.                 ",
"       .6&&&[0.a  ......        ",
"       .b&&&cde. .fghije.       ",
"       .kl&&&&m.a.n]&&&6.       ",
"       .opq&&&rstuv&&wkx.       ",
"        ..y&ll&&&&&&&z..        ",
"         AB&&&&&&&CD&EA         ",
"         9+F&&&&&&GHIJ9         ",
"         ..KL1MMMNO....         ",
"          9.........            "};
