/* XPM */
static char * colon_xpm[] = {
"32 32 25 1",
" 	c None",
".	c #000000",
"+	c #060606",
"@	c #101010",
"#	c #555555",
"$	c #DEDEDE",
"%	c #C5C5C5",
"&	c #FFFFFF",
"*	c #FEFEFE",
"=	c #020202",
"-	c #1B1B1B",
";	c #4F4F4F",
">	c #7A7A7A",
",	c #0B0B0B",
"'	c #999999",
")	c #EFEFEF",
"!	c #EBEBEB",
"~	c #FDFDFD",
"{	c #0E0E0E",
"]	c #C2C2C2",
"^	c #141414",
"/	c #989898",
"(	c #343434",
"_	c #949494",
":	c #010101",
"                                ",
"                                ",
"                                ",
"                                ",
"                                ",
"                                ",
"                                ",
"                                ",
"                                ",
"                                ",
"                                ",
"                                ",
"             .+@@+.             ",
"            ..#$$#..            ",
"            +#%&&%#+            ",
"            @$&**&$@            ",
"            @$&**&$@            ",
"            +#%&&%#+            ",
"            ..#$$#..            ",
"             .+@@+.             ",
"                                ",
"                                ",
"                                ",
"             =....=             ",
"             .-;;-.             ",
"            ..>&&>..            ",
"            ,')&&)',            ",
"            @!&~~&!@            ",
"            {]&&&&]{            ",
"            =^/&&/^=            ",
"            ..(__(..            ",
"             :....:             "};
