/* XPM */
static char * g_xpm[] = {
"32 32 113 2",
"  	c None",
". 	c #000000",
"+ 	c #3C3C3C",
"@ 	c #525252",
"# 	c #515151",
"$ 	c #505050",
"% 	c #1F1F1F",
"& 	c #0F0F0F",
"* 	c #C2C2C2",
"= 	c #FFFFFF",
"- 	c #FCFCFC",
"; 	c #FEFEFE",
"> 	c #FAFAFA",
", 	c #707070",
"' 	c #060606",
") 	c #020202",
"! 	c #656565",
"~ 	c #959595",
"{ 	c #A3A3A3",
"] 	c #F0F0F0",
"^ 	c #CFCFCF",
"/ 	c #6C6C6C",
"( 	c #030303",
"_ 	c #A8A8A8",
": 	c #ABABAB",
"< 	c #090909",
"[ 	c #B1B1B1",
"} 	c #FBFBFB",
"| 	c #B0B0B0",
"1 	c #080808",
"2 	c #010101",
"3 	c #404040",
"4 	c #B2B2B2",
"5 	c #ECECEC",
"6 	c #F8F8F8",
"7 	c #A5A5A5",
"8 	c #4E4E4E",
"9 	c #4C4C4C",
"0 	c #464646",
"a 	c #727272",
"b 	c #EFEFEF",
"c 	c #E9E9E9",
"d 	c #B7B7B7",
"e 	c #424242",
"f 	c #636363",
"g 	c #F7F7F7",
"h 	c #414141",
"i 	c #1A1A1A",
"j 	c #828282",
"k 	c #919191",
"l 	c #939393",
"m 	c #989898",
"n 	c #393939",
"o 	c #EDEDED",
"p 	c #373737",
"q 	c #040404",
"r 	c #050505",
"s 	c #070707",
"t 	c #626262",
"u 	c #353535",
"v 	c #616161",
"w 	c #FDFDFD",
"x 	c #383838",
"y 	c #3A3A3A",
"z 	c #262626",
"A 	c #252525",
"B 	c #0E0E0E",
"C 	c #1E1E1E",
"D 	c #BDBDBD",
"E 	c #E5E5E5",
"F 	c #DDDDDD",
"G 	c #D9D9D9",
"H 	c #DCDCDC",
"I 	c #E1E1E1",
"J 	c #DBDBDB",
"K 	c #545454",
"L 	c #E7E7E7",
"M 	c #242424",
"N 	c #E2E2E2",
"O 	c #222222",
"P 	c #5F5F5F",
"Q 	c #6D6D6D",
"R 	c #8C8C8C",
"S 	c #F5F5F5",
"T 	c #EEEEEE",
"U 	c #3B3B3B",
"V 	c #666666",
"W 	c #303030",
"X 	c #171717",
"Y 	c #CCCCCC",
"Z 	c #C0C0C0",
"` 	c #A9A9A9",
" .	c #AAAAAA",
"..	c #C1C1C1",
"+.	c #F9F9F9",
"@.	c #B4B4B4",
"#.	c #9F9F9F",
"$.	c #F6F6F6",
"%.	c #F2F2F2",
"&.	c #272727",
"*.	c #898989",
"=.	c #F4F4F4",
"-.	c #868686",
";.	c #606060",
">.	c #F1F1F1",
",.	c #333333",
"'.	c #848484",
").	c #7E7E7E",
"!.	c #141414",
"~.	c #7F7F7F",
"{.	c #0C0C0C",
"].	c #0B0B0B",
"^.	c #0D0D0D",
"                                                                ",
"                                                                ",
"                                                                ",
"                                                                ",
"                        . . . . . . . . .                       ",
"                      . . + @ # $ $ # $ % .                     ",
"                  . . . & * = - - - ; > , ' .                   ",
"                  ) ! ~ { ] = = = = = = ^ / (                   ",
"                . . _ ; ; = = = = = = = = : . .                 ",
"              . . < [ = = = - > > > } = = | 1 . .               ",
"              2 3 4 5 = = 6 7 8 9 0 a b = c d e .               ",
"              ) f = = = g { h . . . i j k l m n .               ",
"              ) f = = = o p . .     . q r ' s ( 2               ",
"              2 t ; = = o u .                                   ",
"              2 v w = = o x .                                   ",
"              2 v w = = o y . q % z z A A z A B .               ",
"              2 v w = = o n . C D E F G H I J K 2               ",
"              2 v w = = o x . A L = = = = = = ! 2               ",
"              2 v w = = o x . M N = = = = = ; t )               ",
"              2 v w = = o n . O J = w = = = w v 2               ",
"              2 v w = = o n . B P Q R S = = w v 2               ",
"              2 v w = = o y . . q . n T = = w v 2               ",
"              2 v w = = T U .     . U T = = w v 2               ",
"              ) t w = = T x         x T = = w v 2               ",
"              ) V = = = o W .     . W o = = w v 2               ",
"              . v - = = o + . ( ( . + o = = w v 2               ",
"              . X @ Y = > Z ` _ _  ...+.= = w v 2               ",
"                . 2 @.= = = = = = = = = = = ; t 2               ",
"                  ( #.$.= = = = = S %.; = = - t )               ",
"                  ) &.*.=.6 g $.b -.;.>.= } =.;.q               ",
"                  2 . ,.j '.'.j ).W !.~.R -.j ,.(               ",
"                    . q {.{.].].].( . < {.^.].q .               "};
