/* XPM */
static char * r_xpm[] = {
"32 32 98 2",
"  	c None",
". 	c #000000",
"+ 	c #101010",
"@ 	c #393939",
"# 	c #3A3A3A",
"$ 	c #383838",
"% 	c #3B3B3B",
"& 	c #484848",
"* 	c #FEFEFE",
"= 	c #FFFFFF",
"- 	c #FBFBFB",
"; 	c #5D5D5D",
"> 	c #4C4C4C",
", 	c #E1E1E1",
"' 	c #797979",
") 	c #494949",
"! 	c #E8E8E8",
"~ 	c #535353",
"{ 	c #0F0F0F",
"] 	c #FAFAFA",
"^ 	c #FDFDFD",
"/ 	c #4A4A4A",
"( 	c #F4F4F4",
"_ 	c #5E5E5E",
": 	c #2E2E2E",
"< 	c #373737",
"[ 	c #303030",
"} 	c #B1B1B1",
"| 	c #EEEEEE",
"1 	c #1C1C1C",
"2 	c #434343",
"3 	c #BABABA",
"4 	c #EFEFEF",
"5 	c #292929",
"6 	c #010101",
"7 	c #232323",
"8 	c #252525",
"9 	c #1D1D1D",
"0 	c #272727",
"a 	c #454545",
"b 	c #F2F2F2",
"c 	c #202020",
"d 	c #707070",
"e 	c #F8F8F8",
"f 	c #4E4E4E",
"g 	c #9E9E9E",
"h 	c #7E7E7E",
"i 	c #818181",
"j 	c #D3D3D3",
"k 	c #F0F0F0",
"l 	c #7A7A7A",
"m 	c #1B1B1B",
"n 	c #F7F7F7",
"o 	c #989898",
"p 	c #020202",
"q 	c #717171",
"r 	c #E6E6E6",
"s 	c #6F6F6F",
"t 	c #141414",
"u 	c #C9C9C9",
"v 	c #DADADA",
"w 	c #CFCFCF",
"x 	c #030303",
"y 	c #1E1E1E",
"z 	c #676767",
"A 	c #0B0B0B",
"B 	c #686868",
"C 	c #F5F5F5",
"D 	c #BDBDBD",
"E 	c #323232",
"F 	c #3C3C3C",
"G 	c #C3C3C3",
"H 	c #A1A1A1",
"I 	c #2C2C2C",
"J 	c #191919",
"K 	c #E2E2E2",
"L 	c #C0C0C0",
"M 	c #040404",
"N 	c #181818",
"O 	c #F3F3F3",
"P 	c #C2C2C2",
"Q 	c #868686",
"R 	c #DCDCDC",
"S 	c #DDDDDD",
"T 	c #666666",
"U 	c #151515",
"V 	c #F1F1F1",
"W 	c #848484",
"X 	c #4D4D4D",
"Y 	c #898989",
"Z 	c #505050",
"` 	c #8B8B8B",
" .	c #8D8D8D",
"..	c #909090",
"+.	c #161616",
"@.	c #464646",
"#.	c #939393",
"$.	c #8A8A8A",
"                                                                ",
"                                                                ",
"                                                                ",
"                                                                ",
"                . . . . . . . . . . . . .                       ",
"              . + @ # $ $ $ $ $ $ $ # % + .                     ",
"              . & * = - - - - - - - = = ; . .                   ",
"              . > = = = = = = = = = = = , ' . .                 ",
"              . ) = = = = = = = = = * * = ! ~ { .               ",
"              . ) = = = = - ] ] ] ^ = = = = = / .               ",
"              . ) = = = ( _ : < [ } = = * = = > .               ",
"              . ) = = = | 1 . . . 2 3 ] = = = ) .               ",
"              . ) = = = 4 5     6 . 7 4 = = = ) .               ",
"              . ) = = = 4 5 .     . 8 4 = = = ) .               ",
"              . ) = = = 4 5       . 9 | = = = ) .               ",
"              . ) = = = 4 0 .   . . a b = = = / .               ",
"              . ) = = = 4 c . . . d e * = = = f .               ",
"              . ) = = = e g h i i j = = = k l m .               ",
"              . ) = = * = = = = = = = = n o . . p               ",
"              . ) = = = = = = = = = = = q . .                   ",
"              . ) = = * = = = * = = r s t .                     ",
"              . ) = = = - u v = = = w . . x                     ",
"              . ) = = = 4 y z = = = j A . .                     ",
"              . ) = = = | + B = = = C D E . .                   ",
"              . ) = = = 4 c F G e = = = H I 6                   ",
"              . ) = = = k I . J K = = = = L M                   ",
"              . ) = = = k I . N O = * = = P . . x               ",
"              . ) = = = k I . + Q R = = = S T U .               ",
"              . / = = = V I . . . W = = = = = X .               ",
"              . f = = = = I .   . Y = = = = = Z .               ",
"              . 0 `  ...i +.    . @.#.$.Y  .` 0 .               ",
"              p . . . . . .     6 . . . . . . . p               "};
