/* XPM */
static char * t_xpm[] = {
"32 32 22 1",
" 	c None",
".	c #000000",
"+	c #101010",
"@	c #393939",
"#	c #3A3A3A",
"$	c #383838",
"%	c #484848",
"&	c #FEFEFE",
"*	c #FFFFFF",
"=	c #FBFBFB",
"-	c #4C4C4C",
";	c #FAFAFA",
">	c #313131",
",	c #DEDEDE",
"'	c #CFCFCF",
")	c #0F0F0F",
"!	c #D0D0D0",
"~	c #DDDDDD",
"{	c #080808",
"]	c #707070",
"^	c #939393",
"/	c #898989",
"                                ",
"                                ",
"                                ",
"                                ",
"        ................        ",
"       .+@#$$$$$$$$$$#@+.       ",
"       .%&*==========*&%.       ",
"       .-**************-.       ",
"       .-*****&**&*****-.       ",
"       .%&*;=&****&=;*&%.       ",
"       .+@#>%,****,%>#@+.       ",
"        .....'****'.....        ",
"            )'****')            ",
"            )!****!)            ",
"            )!****!)            ",
"            )!****!)            ",
"            )!****!)            ",
"            )!****!)            ",
"            )!****!)            ",
"            )!****!)            ",
"            )!****!)            ",
"            )!****!)            ",
"            )!****!)            ",
"            )!****!)            ",
"            )!****!)            ",
"            )!****!)            ",
"            )!****!)            ",
"            )!****!)            ",
"            )!****!)            ",
"            +~****~+            ",
"            {]^//^]{            ",
"            ........            "};
