/* XPM */
static char * x_xpm[] = {
"32 32 86 1",
" 	c None",
".	c #000000",
"+	c #020202",
"@	c #101010",
"#	c #393939",
"$	c #3A3A3A",
"%	c #383838",
"&	c #3C3C3C",
"*	c #1D1D1D",
"=	c #030303",
"-	c #343434",
";	c #3B3B3B",
">	c #484848",
",	c #FEFEFE",
"'	c #FFFFFF",
")	c #FBFBFB",
"!	c #FCFCFC",
"~	c #878787",
"{	c #272727",
"]	c #EBEBEB",
"^	c #525252",
"/	c #8F8F8F",
"(	c #575757",
"_	c #CCCCCC",
":	c #2F2F2F",
"<	c #B4B4B4",
"[	c #F2F2F2",
"}	c #848484",
"|	c #959595",
"1	c #010101",
"2	c #C2C2C2",
"3	c #8C8C8C",
"4	c #898989",
"5	c #F0F0F0",
"6	c #A5A5A5",
"7	c #747474",
"8	c #6C6C6C",
"9	c #CFCFCF",
"0	c #FDFDFD",
"a	c #6D6D6D",
"b	c #ACACAC",
"c	c #5B5B5B",
"d	c #595959",
"e	c #616161",
"f	c #4F4F4F",
"g	c #EDEDED",
"h	c #2B2B2B",
"i	c #D9D9D9",
"j	c #CECECE",
"k	c #0A0A0A",
"l	c #050505",
"m	c #D1D1D1",
"n	c #323232",
"o	c #A9A9A9",
"p	c #F1F1F1",
"q	c #636363",
"r	c #535353",
"s	c #2D2D2D",
"t	c #999999",
"u	c #DBDBDB",
"v	c #ABABAB",
"w	c #040404",
"x	c #C0C0C0",
"y	c #888888",
"z	c #868686",
"A	c #151515",
"B	c #666666",
"C	c #DDDDDD",
"D	c #919191",
"E	c #4D4D4D",
"F	c #808080",
"G	c #8A8A8A",
"H	c #505050",
"I	c #575557",
"J	c #000800",
"K	c #949394",
"L	c #8B8B8B",
"M	c #8D8D8D",
"N	c #2A002A",
"O	c #6F006F",
"P	c #070007",
"Q	c #434A43",
"R	c #939393",
"S	c #8D018D",
"T	c #FE00FE",
"U	c #210121",
"                                ",
"                                ",
"                                ",
"                                ",
"        .......+  ......        ",
"       .@#$%#&*. .=-;$#@.       ",
"       .>,')!'~...{]'',>.       ",
"       .^'''''/..(_''''^.       ",
"       .:<['''}..|'''[<:.       ",
"       ..12'''3..4'''21..       ",
"         ._'''56.7'''_.         ",
"         +89'''0ab''98+         ",
"         ..c'','''''c..         ",
"          .d''''''''d.          ",
"          .e'','',''e.          ",
"          .fg,'''',gf.          ",
"          ..hi''''ih..          ",
"           .1j''''j1.           ",
"            k9''''9k            ",
"          1.lm''''ml.1          ",
"          .nop''''pon.          ",
"          .q'','',''q.          ",
"          .c''''''''c.          ",
"         ..r''''''''r..         ",
"         1st''uvvu''ts1         ",
"         wx'''y..y'''xw         ",
"       =..2'''z..z'''2..=       ",
"       .ABC'''D..4'''CBA.       ",
"       .E'''''F..G'''''E.       ",
"       .H''''IJ..K'''''H.       ",
"       .{LMDFJNOPQRG4ML{.       ",
"       +......STU.......+       "};
